<?xml version="1.0" encoding="utf-8"?>
<svg width="246" height="80" viewBox="0 0 129.872 78.74" fill="none" xmlns="http://www.w3.org/2000/svg">
  <path d="M 8.163 0.891 L 15.676 0.891 L 15.676 12.431 L 23.514 0.891 L 32.641 0.891 L 19.383 14.415 L 43.588 0.891 L 43.588 9.477 L 21.856 17.634 L 43.588 15.599 L 43.588 23.756 L 21.856 21.719 L 43.588 29.877 L 43.588 38.463 L 19.384 24.939 L 32.641 38.463 L 23.513 38.463 L 15.676 26.923 L 15.676 38.463 L 8.163 38.463 L 8.163 0.891 Z" fill="url(#a)"/>
  <path d="M 48.948 0.891 L 57.801 0.891 L 57.801 38.457 L 48.948 38.457 L 48.948 0.89 L 48.948 0.891 Z" fill="url(#b)"/>
  <path d="M 80.185 38.463 L 69.341 14.636 L 70.414 38.463 L 63.168 38.463 L 63.168 0.898 L 71.221 0.898 L 82.063 24.725 L 80.992 0.898 L 88.239 0.898 L 88.239 38.463 L 80.186 38.463 L 80.185 38.463 Z" fill="url(#c)"/>
  <path d="M 92.31 19.677 C 92.31 8.944 97.247 0.143 107.173 0.143 C 117.1 0.143 122.037 8.944 122.037 19.677 C 122.037 30.41 117.1 39.211 107.173 39.211 C 97.247 39.211 92.31 30.41 92.31 19.677 Z M 107.18 33.63 C 110.666 33.63 112.709 27.457 112.709 19.677 C 112.709 11.897 110.666 5.724 107.179 5.724 C 103.693 5.724 101.65 11.897 101.65 19.677 C 101.65 27.457 103.687 33.63 107.18 33.63 Z" fill="url(#d)"/>
  <path d="M 24.751 52.36 C 24.751 60.413 18.955 64.706 10.902 64.706 L 8.859 64.706 L 8.859 77.748 L 0.006 77.748 L 0.006 40.183 L 10.902 40.183 C 18.955 40.176 24.751 43.825 24.751 52.36 Z M 8.866 46.082 L 8.866 59.125 L 10.264 59.125 C 13.484 59.125 15.898 56.763 15.898 52.36 C 15.898 47.956 13.484 46.082 10.264 46.082 L 8.866 46.082 Z" fill="url(#e)"/>
  <path d="M 27.379 58.962 C 27.379 48.229 32.316 39.428 42.242 39.428 C 52.169 39.428 57.106 48.229 57.106 58.962 C 57.106 69.695 52.169 78.496 42.242 78.496 C 32.316 78.496 27.379 69.695 27.379 58.962 Z M 42.242 72.915 C 45.729 72.915 47.771 66.742 47.771 58.962 C 47.771 51.182 45.729 45.009 42.242 45.009 C 38.756 45.009 36.713 51.182 36.713 58.962 C 36.72 66.742 38.756 72.915 42.242 72.915 Z" fill="url(#f)"/>
  <path d="M 61.184 40.176 L 70.037 40.176 L 70.037 77.742 L 61.184 77.742 L 61.184 40.175 L 61.184 40.176 Z" fill="url(#g)"/>
  <path d="M 84.211 62.292 C 77.18 58.592 74.552 55.319 74.552 50.324 C 74.552 43.832 79.222 39.428 86.254 39.428 C 92.96 39.428 97.312 42.596 98.6 48.392 L 98.815 49.361 L 90.443 50.701 C 89.962 46.889 88.563 44.905 86.202 44.905 C 84.107 44.905 82.767 46.355 82.767 48.555 C 82.767 50.968 84.055 52.366 89.259 55.261 C 96.128 59.073 98.6 62.241 98.6 67.23 C 98.6 74.099 93.878 78.503 86.527 78.503 C 79.443 78.503 74.883 75.549 73.596 69.376 L 73.381 68.355 L 82.019 66.852 C 82.501 70.879 83.951 73.025 86.475 73.025 C 88.622 73.025 90.176 71.523 90.176 68.947 C 90.17 66.313 88.771 64.706 84.211 62.293 L 84.211 62.292 Z" fill="url(#h)"/>
  <path d="M 102.562 40.176 L 111.415 40.176 L 111.415 57.082 L 118.661 40.176 L 127.787 40.176 L 117.321 58.37 L 128.054 77.741 L 118.128 77.741 L 111.421 60.835 L 111.421 77.741 L 102.562 77.741 L 102.562 40.176 Z" fill="url(#i)"/>
  <defs>
    <radialGradient id="a" cx="0" cy="0" r="1" gradientUnits="userSpaceOnUse" gradientTransform="matrix(294.593531, 11.929948, -2.027749, 50.072457, 8.163492, 0.897882)">
      <stop offset="0.5" stop-color="#F50"/>
      <stop offset="1" stop-color="#BDF700"/>
    </radialGradient>
    <radialGradient id="b" cx="0" cy="0" r="1" gradientUnits="userSpaceOnUse" gradientTransform="matrix(294.593531, 11.929948, -2.027749, 50.072457, 8.163492, 0.897882)">
      <stop offset="0.5" stop-color="#F50"/>
      <stop offset="1" stop-color="#BDF700"/>
    </radialGradient>
    <radialGradient id="c" cx="0" cy="0" r="1" gradientUnits="userSpaceOnUse" gradientTransform="matrix(294.593531, 11.929948, -2.027749, 50.072457, 8.163492, 0.897882)">
      <stop offset="0.5" stop-color="#F50"/>
      <stop offset="1" stop-color="#BDF700"/>
    </radialGradient>
    <radialGradient id="d" cx="0" cy="0" r="1" gradientUnits="userSpaceOnUse" gradientTransform="matrix(294.593531, 11.929948, -2.027749, 50.072457, 8.163492, 0.897882)">
      <stop offset="0.5" stop-color="#F50"/>
      <stop offset="1" stop-color="#BDF700"/>
    </radialGradient>
    <radialGradient id="e" cx="0" cy="0" r="1" gradientUnits="userSpaceOnUse" gradientTransform="matrix(294.593536, 11.929948, -2.027749, 50.072456, -117.946121, 40.183236)">
      <stop offset="0.5" stop-color="#F50"/>
      <stop offset="1" stop-color="#BDF700"/>
    </radialGradient>
    <radialGradient id="f" cx="0" cy="0" r="1" gradientUnits="userSpaceOnUse" gradientTransform="matrix(294.593536, 11.929948, -2.027749, 50.072456, -117.946121, 40.183236)">
      <stop offset="0.5" stop-color="#F50"/>
      <stop offset="1" stop-color="#BDF700"/>
    </radialGradient>
    <radialGradient id="g" cx="0" cy="0" r="1" gradientUnits="userSpaceOnUse" gradientTransform="matrix(294.593536, 11.929948, -2.027749, 50.072456, -117.946121, 40.183236)">
      <stop offset="0.5" stop-color="#F50"/>
      <stop offset="1" stop-color="#BDF700"/>
    </radialGradient>
    <radialGradient id="h" cx="0" cy="0" r="1" gradientUnits="userSpaceOnUse" gradientTransform="matrix(294.593536, 11.929948, -2.027749, 50.072456, -117.946121, 40.183236)">
      <stop offset="0.5" stop-color="#F50"/>
      <stop offset="1" stop-color="#BDF700"/>
    </radialGradient>
    <radialGradient id="i" cx="0" cy="0" r="1" gradientUnits="userSpaceOnUse" gradientTransform="matrix(294.593536, 11.929948, -2.027749, 50.072456, -117.946121, 40.183236)">
      <stop offset="0.5" stop-color="#F50"/>
      <stop offset="1" stop-color="#BDF700"/>
    </radialGradient>
  </defs>
</svg>