<?xml version="1.0" encoding="utf-8"?>
<svg version="1.1" id="Layer_1" xmlns="http://www.w3.org/2000/svg" x="0px" y="0px" width="100%" viewBox="0 0 2079 1024" enable-background="new 0 0 2079 1024">
  <defs>
    <radialGradient id="a" cx="0" cy="0" r="1" gradientUnits="userSpaceOnUse" gradientTransform="matrix(3423.740967, 113.532783, -23.56633, 476.520553, 393.732056, 140.02164)">
      <stop offset="0.5" stop-color="#F50"/>
      <stop offset="1" stop-color="#BDF700"/>
    </radialGradient>
    <radialGradient id="b" cx="0" cy="0" r="1" gradientUnits="userSpaceOnUse" gradientTransform="matrix(3423.740967, 113.532783, -23.56633, 476.520553, 393.732056, 140.02164)">
      <stop offset="0.5" stop-color="#F50"/>
      <stop offset="1" stop-color="#BDF700"/>
    </radialGradient>
    <radialGradient id="c" cx="0" cy="0" r="1" gradientUnits="userSpaceOnUse" gradientTransform="matrix(3423.740967, 113.532783, -23.56633, 476.520553, 393.732056, 140.02164)">
      <stop offset="0.5" stop-color="#F50"/>
      <stop offset="1" stop-color="#BDF700"/>
    </radialGradient>
    <radialGradient id="d" cx="0" cy="0" r="1" gradientUnits="userSpaceOnUse" gradientTransform="matrix(3423.740967, 113.532783, -23.56633, 476.520553, 393.732056, 140.02164)">
      <stop offset="0.5" stop-color="#F50"/>
      <stop offset="1" stop-color="#BDF700"/>
    </radialGradient>
    <radialGradient id="e" cx="0" cy="0" r="1" gradientUnits="userSpaceOnUse" gradientTransform="matrix(3423.740967, 113.532783, -23.56633, 476.520553, -1071.90332, 513.885244)">
      <stop offset="0.5" stop-color="#F50"/>
      <stop offset="1" stop-color="#BDF700"/>
    </radialGradient>
    <radialGradient id="f" cx="0" cy="0" r="1" gradientUnits="userSpaceOnUse" gradientTransform="matrix(3423.740967, 113.532783, -23.56633, 476.520553, -1071.90332, 513.885244)">
      <stop offset="0.5" stop-color="#F50"/>
      <stop offset="1" stop-color="#BDF700"/>
    </radialGradient>
    <radialGradient id="g" cx="0" cy="0" r="1" gradientUnits="userSpaceOnUse" gradientTransform="matrix(3423.740967, 113.532783, -23.56633, 476.520553, -1071.90332, 513.885244)">
      <stop offset="0.5" stop-color="#F50"/>
      <stop offset="1" stop-color="#BDF700"/>
    </radialGradient>
    <radialGradient id="h" cx="0" cy="0" r="1" gradientUnits="userSpaceOnUse" gradientTransform="matrix(3423.740967, 113.532783, -23.56633, 476.520553, -1071.90332, 513.885244)">
      <stop offset="0.5" stop-color="#F50"/>
      <stop offset="1" stop-color="#BDF700"/>
    </radialGradient>
    <radialGradient id="i" cx="0" cy="0" r="1" gradientUnits="userSpaceOnUse" gradientTransform="matrix(3423.740967, 113.532783, -23.56633, 476.520553, -1071.90332, 513.885244)">
      <stop offset="0.5" stop-color="#F50"/>
      <stop offset="1" stop-color="#BDF700"/>
    </radialGradient>
    <linearGradient id="borderGradient" x1="0%" y1="0%" x2="100%" y2="100%">
      <stop offset="0%" stop-color="#F50"/>
      <stop offset="100%" stop-color="#BDF700"/>
    </linearGradient>
  </defs>
  <path d="M 2078.65 104 C 2079.55 377.699 2080.46 651.399 2080.99 925.659 C 2080.2 926.896 2079.53 927.532 2079.42 928.255 C 2076.29 949.024 2067.22 967.201 2053.87 982.952 C 2038.04 1001.63 2018.38 1015 1994.25 1021.06 C 1988.74 1022.44 1983.21 1023.69 1977.69 1025 C 1354.33 1025 730.959 1025 106.992 1024.61 C 104.565 1024.13 102.69 1024.3 100.921 1023.94 C 80.212 1019.74 61.129 1011.63 45.082 997.777 C 26.087 981.376 12.12 961.472 6.228 936.581 C 5.295 932.638 3.667 928.856 2.361 925 C 1.454 650.634 0.548 376.268 0.013 101.331 C 0.798 99.549 1.386 98.369 1.6 97.124 C 5.107 76.691 13.821 58.565 27.16 42.979 C 43.07 24.388 62.666 10.996 86.765 4.935 C 92.262 3.552 97.794 2.308 103.309 1 C 726.675 1 1350.04 1 1974.01 1.395 C 1986.22 2.434 1997.02 6.212 2007.58 10.726 C 2022.95 17.3 2036.03 27.106 2047.36 39.387 C 2058.03 50.953 2066.44 63.91 2071.5 78.808 C 2074.3 87.063 2076.29 95.594 2078.65 104 M 21.902 180.5 C 22.705 423.664 23.503 666.828 24.325 909.992 C 24.368 922.654 27.716 934.609 32.979 946.026 C 40.276 961.858 50.984 975.029 65.234 985.088 C 80.76 996.047 98.007 1002.91 117.117 1002.92 C 733.615 1003.02 1350.11 1003 1966.61 1002.99 C 1979.27 1002.99 1991.19 999.626 2002.62 994.464 C 2018.51 987.29 2031.57 976.522 2041.55 962.31 C 2052.41 946.837 2059.3 929.645 2059.24 910.502 C 2058.47 645.67 2057.57 380.837 2056.68 116.005 C 2056.63 103.343 2053.28 91.39 2048.02 79.972 C 2040.72 64.139 2030.01 50.97 2015.76 40.911 C 2000.24 29.951 1982.99 23.087 1963.88 23.083 C 1348.22 22.982 732.552 22.979 116.889 23.194 C 107.314 23.197 97.445 25.104 88.245 27.871 C 70.87 33.096 56.417 43.174 44.675 57.223 C 30.404 74.297 22.159 93.694 21.781 116.002 C 21.423 137.16 21.829 158.333 21.902 180.5 Z" fill="url(#borderGradient)" stroke-width="1"/>
  <path d="M 393.722 139.953 L 481.038 139.953 L 481.038 249.774 L 572.131 139.953 L 678.204 139.953 L 524.12 268.655 L 805.464 139.953 L 805.464 221.66 L 552.86 299.288 L 805.464 279.922 L 805.464 357.548 L 552.86 338.163 L 805.464 415.798 L 805.464 497.511 L 524.131 368.807 L 678.204 497.511 L 572.118 497.511 L 481.038 387.687 L 481.038 497.511 L 393.722 497.511 L 393.722 139.953 Z" fill="url(#a)" style=""/>
  <path d="M 867.758 139.953 L 970.607 139.953 L 970.607 497.453 L 867.758 497.453 L 867.758 139.94 L 867.758 139.953 Z" fill="url(#b)" style=""/>
  <path d="M 1230.7 497.511 L 1104.72 270.757 L 1117.16 497.511 L 1033.01 497.511 L 1033.01 140.018 L 1126.57 140.018 L 1252.56 366.771 L 1240.12 140.018 L 1324.37 140.018 L 1324.37 497.511 L 1230.7 497.511 Z" fill="url(#c)" style=""/>
  <path d="M 1371.68 318.731 C 1371.68 216.589 1429.09 132.832 1544.37 132.832 C 1659.78 132.832 1717.2 216.589 1717.2 318.731 C 1717.2 420.873 1659.78 504.627 1544.37 504.627 C 1429.09 504.627 1371.68 420.873 1371.68 318.731 Z M 1544.49 451.517 C 1584.94 451.517 1608.76 392.768 1608.76 318.731 C 1608.76 244.691 1584.94 185.944 1544.49 185.944 C 1503.94 185.944 1480.23 244.691 1480.23 318.731 C 1480.23 392.768 1503.94 451.517 1544.49 451.517 Z" fill="url(#d)" style=""/>
  <path d="M 586.507 629.762 C 586.507 706.402 519.145 747.254 425.554 747.254 L 401.811 747.254 L 401.811 871.37 L 298.923 871.37 L 298.923 513.88 L 425.554 513.88 C 519.145 513.813 586.507 548.54 586.507 629.762 Z M 401.893 570.017 L 401.893 694.143 L 418.139 694.143 C 455.562 694.143 483.617 671.665 483.617 629.762 C 483.617 587.851 455.562 570.017 418.139 570.017 L 401.893 570.017 Z" fill="url(#e)" style=""/>
  <path d="M 617.05 692.59 C 617.05 590.449 674.427 506.695 789.774 506.695 C 905.18 506.695 962.592 590.449 962.592 692.59 C 962.592 794.733 905.18 878.49 789.774 878.49 C 674.427 878.49 617.05 794.733 617.05 692.59 Z M 789.774 825.376 C 830.335 825.376 854.042 766.632 854.042 692.59 C 854.042 618.552 830.335 559.806 789.774 559.806 C 749.213 559.806 725.504 618.552 725.504 692.59 C 725.62 766.632 749.213 825.376 789.774 825.376 Z" fill="url(#f)" style=""/>
  <path d="M 1009.88 513.813 L 1112.85 513.813 L 1112.85 871.313 L 1009.88 871.313 L 1009.88 513.804 L 1009.88 513.813 Z" fill="url(#g)" style=""/>
  <path d="M 1277.54 724.281 C 1195.84 689.07 1165.27 657.922 1165.27 610.386 C 1165.27 548.604 1219.55 506.695 1301.25 506.695 C 1379.23 506.695 1429.79 536.842 1444.77 592.001 L 1447.22 601.223 L 1349.94 613.974 C 1344.37 577.697 1328.09 558.816 1300.66 558.816 C 1276.39 558.816 1260.81 572.615 1260.81 593.553 C 1260.81 616.516 1275.68 629.82 1336.23 657.369 C 1416.08 693.648 1444.77 723.795 1444.77 771.274 C 1444.77 836.644 1389.92 878.555 1304.5 878.555 C 1222.11 878.555 1169.11 850.444 1154.22 791.698 L 1151.68 781.981 L 1252.08 767.679 C 1257.67 806.001 1274.52 826.423 1303.8 826.423 C 1328.8 826.423 1346.81 812.129 1346.81 787.614 C 1346.81 762.548 1330.54 747.254 1277.54 724.292 L 1277.54 724.281 Z" fill="url(#h)" style=""/>
  <path d="M 1490.8 513.813 L 1593.66 513.813 L 1593.66 674.7 L 1677.91 513.813 L 1784.02 513.813 L 1662.36 686.957 L 1787.05 871.303 L 1671.75 871.303 L 1593.78 710.417 L 1593.78 871.303 L 1490.8 871.303 L 1490.8 513.813 Z" fill="url(#i)" style=""/>
</svg>